Coordinates
version=1
nRows=26
nColumns=18
inDegrees=yes

Units are S.I. units (second, meters, Newtons, ...)
If the header above contains a line with 'inDegrees', this indicates whether rotational values are in degrees (yes) or radians (no).

endheader
time	ground_thorax_rot_x	ground_thorax_rot_y	ground_thorax_rot_z	ground_thorax_tx	ground_thorax_ty	ground_thorax_tz	clav_prot	clav_elev	scapula_abduction	scapula_elevation	scapula_upward_rot	scapula_winging	plane_elv	shoulder_elv	axial_rot	elbow_flexion	pro_sup
      3.54000000	     -3.07996607	     -1.99558263	     -8.12277731	     -0.00449464	      0.00468629	     -0.00923616	    -31.10676590	      7.94745626	      0.63671958	     -2.54952239	     55.46583732	     -7.19276186	     59.70407005	     77.24331288	    -17.16136817	      0.00000000	     34.32000000
      3.55000000	     -3.04724133	     -2.00800312	     -8.29336769	     -0.00443928	      0.00458108	     -0.00928521	    -30.99872398	      8.00548014	      0.63626596	     -2.49276603	     55.26307306	     -7.16371537	     59.78290227	     77.01043441	    -17.20194654	      0.00000000	     34.32000000
      3.56000000	     -3.07305232	     -2.07989679	     -8.15501241	     -0.00437756	      0.00470338	     -0.00934577	    -30.77817114	      8.06333286	      0.61671245	     -2.41592958	     54.80486586	     -7.08746858	     59.99991195	     76.43908308	    -17.33867637	      0.00000000	     34.32000000
      3.57000000	     -3.03991308	     -2.04798167	     -8.14728766	     -0.00437561	      0.00460894	     -0.00941610	    -30.57390372	      8.01774156	      0.54637883	     -2.40727536	     54.28163095	     -6.98785668	     60.14343427	     75.85628742	    -17.45266991	      0.00000000	     34.32000000
      3.58000000	     -2.98633455	     -2.06070897	     -8.16086242	     -0.00433543	      0.00457574	     -0.00932452	    -30.39458952	      7.88898552	      0.50568902	     -2.45928673	     53.81348357	     -6.87997607	     60.38638150	     75.25751135	    -17.53315302	      0.00000000	     34.32000000
      3.59000000	     -2.94279806	     -2.01434709	     -8.13446626	     -0.00445061	      0.00467100	     -0.00926641	    -30.21717513	      7.80831774	      0.49722513	     -2.48024363	     53.40495983	     -6.78677940	     60.50722503	     74.72530288	    -17.61153492	      0.00000000	     34.32000000
      3.60000000	     -2.93393647	     -1.98290367	     -8.11175335	     -0.00452473	      0.00472549	     -0.00923776	    -30.02943829	      7.84434220	      0.49724754	     -2.42062104	     53.02863657	     -6.71820915	     60.55043922	     74.27618213	    -17.71187531	      0.00000000	     34.32000000
      3.61000000	     -2.76877230	     -1.93857057	     -8.32491191	     -0.00439547	      0.00467534	     -0.00920575	    -29.92960051	      7.85531592	      0.50093060	     -2.39418742	     52.82964166	     -6.67990036	     60.60329890	     74.07397683	    -17.73243523	      0.00000000	     34.32000000
      3.62000000	     -2.91724915	     -1.80926953	     -8.08389381	     -0.00454231	      0.00473852	     -0.00949165	    -29.65644931	      7.91275375	      0.52620003	     -2.30360282	     52.31335870	     -6.58288915	     60.69258557	     73.43502686	    -17.86039068	      0.00000000	     34.32000000
      3.63000000	     -2.69240621	     -1.78898822	     -8.33457076	     -0.00432198	      0.00461567	     -0.00945872	    -29.54644450	      7.91601387	      0.50253681	     -2.27742239	     52.05773100	     -6.53508085	     60.73312721	     73.18133438	    -17.88189072	      0.00000000	     34.32000000
      3.64000000	     -2.83634809	     -1.60296092	     -8.05037431	     -0.00449773	      0.00478634	     -0.00972120	    -29.26925043	      7.86336984	      0.33551131	     -2.24169371	     51.26254083	     -6.38601994	     60.72552906	     72.49242736	    -17.95661905	      0.00000000	     34.32000000
      3.65000000	     -2.78880146	     -1.44774590	     -8.03311239	     -0.00440664	      0.00482040	     -0.00985232	    -29.09907015	      7.79732530	      0.12469916	     -2.23131717	     50.63237322	     -6.27125573	     60.73187876	     72.01281248	    -18.01920374	      0.00000000	     34.32000000
      3.66000000	     -2.51832830	     -1.42309951	     -8.31867239	     -0.00403676	      0.00467327	     -0.00983901	    -28.97702744	      7.79421473	      0.08556371	     -2.20248649	     50.32981640	     -6.21234367	     60.77333892	     71.72014858	    -18.04408857	      0.00000000	     34.32000000
      3.67000000	     -2.78814170	     -0.55938909	     -8.05166895	     -0.00432233	      0.00488366	     -0.01048595	    -29.11100770	      7.60130488	     -0.99266993	     -2.26276499	     49.25273133	     -6.07773567	     61.29755534	     71.33710911	    -18.31102517	      0.00000000	     34.32000000
      3.68000000	     -2.78393848	     -0.47157232	     -8.04967362	     -0.00417451	      0.00490828	     -0.01064752	    -28.95847806	      7.63014697	     -1.01807605	     -2.20434822	     48.91484087	     -6.01152774	     61.63277783	     70.86903129	    -18.39021375	      0.00000000	     34.32000000
      3.69000000	     -2.76165253	     -0.37055274	     -8.08397934	     -0.00414400	      0.00481661	     -0.01081946	    -28.84755751	      7.60215793	     -1.08019773	     -2.18932041	     48.59726734	     -5.94426215	     61.87142003	     70.46475231	    -18.43942892	      0.00000000	     34.32000000
      3.70000000	     -2.69193268	     -0.27830847	     -8.06716290	     -0.00417103	      0.00481628	     -0.01078709	    -28.76744979	      7.42364877	     -1.17303249	     -2.27810471	     48.24700753	     -5.84867345	     62.00386566	     70.00261182	    -18.47068850	      0.00000000	     34.32000000
      3.71000000	     -2.42842308	     -0.32091141	     -8.26592434	     -0.00394596	      0.00461136	     -0.01043672	    -28.69560815	      7.39943290	     -1.25413581	     -2.26740138	     47.98956827	     -5.79663668	     61.97849436	     69.74512043	    -18.48627310	      0.00000000	     34.32000000
      3.72000000	     -2.49341030	      0.16845980	     -8.04482378	     -0.00423670	      0.00483102	     -0.01079601	    -28.60061187	      7.28545948	     -1.54317855	     -2.28700454	     47.39812533	     -5.67731832	     61.51198679	     69.10090789	    -18.47840192	      0.00000000	     34.32000000
      3.73000000	     -2.47195141	      0.46199919	     -8.04197106	     -0.00423186	      0.00492017	     -0.01090347	    -28.52148980	      7.33557527	     -1.79874656	     -2.20421413	     46.94568346	     -5.61040895	     61.25174278	     68.81569816	    -18.48302390	      0.00000000	     34.32000000
      3.74000000	     -2.44844305	      0.64491390	     -7.98421366	     -0.00427733	      0.00502353	     -0.01093800	    -28.41961516	      7.42424660	     -1.99645101	     -2.09518905	     46.53042273	     -5.55012183	     61.16221235	     68.52464349	    -18.55092527	      0.00000000	     34.32000000
      3.75000000	     -2.38540966	      0.88907091	     -7.98034858	     -0.00430401	      0.00508017	     -0.01090836	    -28.43606197	      7.36479365	     -2.45552540	     -2.08451973	     45.98969582	     -5.46307928	     61.34821195	     68.27429858	    -18.89686839	      0.00000000	     34.32000000
      3.76000000	     -2.27553596	      0.88165452	     -7.98909059	     -0.00424119	      0.00506343	     -0.01078133	    -28.29913608	      7.27124202	     -2.55036726	     -2.09516313	     45.54708877	     -5.35418902	     61.50192539	     67.70944712	    -18.95442813	      0.00000000	     34.32000000
      3.77000000	     -2.21614280	      0.99429965	     -7.96457730	     -0.00424901	      0.00507670	     -0.01078463	    -28.19383465	      7.03975352	     -2.68778811	     -2.19927847	     45.06191822	     -5.21635406	     61.56754291	     67.06458143	    -18.97391208	      0.00000000	     34.32000000
      3.78000000	     -2.19810460	      1.12216070	     -7.97759420	     -0.00428834	      0.00507014	     -0.01082221	    -28.10691618	      6.75794103	     -2.80254035	     -2.34373712	     44.62136731	     -5.07653970	     61.52641805	     66.50325103	    -18.95738457	      0.00000000	     34.32000000
      3.79000000	     -2.18482551	      1.13655549	     -8.00833936	     -0.00425828	      0.00506558	     -0.01083627	    -28.00346969	      6.61812927	     -2.87571377	     -2.39459950	     44.25454169	     -4.97251542	     61.54208404	     66.08020395	    -18.95993410	      0.00000000	     34.32000000
